<?xml version="1.0" standalone="no"?>
<!DOCTYPE svg PUBLIC "-//W3C//DTD SVG 20010904//EN"
 "http://www.w3.org/TR/2001/REC-SVG-20010904/DTD/svg10.dtd">
<svg version="1.0" xmlns="http://www.w3.org/2000/svg"
 width="231.000000pt" height="231.000000pt" viewBox="0 0 231.000000 231.000000"
 preserveAspectRatio="xMidYMid meet">
<metadata>
Created by potrace 1.14, written by Peter Selinger 2001-2017
</metadata>
<g transform="translate(0.000000,231.000000) scale(0.100000,-0.100000)"
fill="#000000" stroke="none">
<path d="M1 1308 c1 -552 5 -982 9 -957 4 25 17 64 29 87 13 26 335 355 911
931 829 829 894 891 945 910 83 31 158 28 234 -10 156 -78 206 -270 107 -413
-19 -28 -428 -443 -908 -922 -831 -830 -876 -873 -931 -893 -175 -64 -356 38
-387 218 -5 33 -8 2 -9 -106 l-1 -153 1150 0 1150 0 0 1155 0 1155 -1150 0
-1150 0 1 -1002z m1565 -813 c30 -19 60 -49 79 -79 27 -44 30 -58 30 -131 0
-73 -3 -87 -30 -131 -19 -30 -49 -60 -79 -79 -44 -27 -58 -30 -131 -30 -73 0
-87 3 -131 30 -68 43 -107 108 -112 190 -7 110 38 193 130 239 46 24 63 27
124 24 58 -3 80 -9 120 -33z m570 0 c30 -19 60 -49 79 -79 27 -44 30 -58 30
-131 0 -73 -3 -87 -30 -131 -19 -30 -49 -60 -79 -79 -44 -27 -58 -30 -131 -30
-73 0 -87 3 -131 30 -68 43 -107 108 -112 190 -7 110 38 193 130 239 46 24 63
27 124 24 58 -3 80 -9 120 -33z"/>
<path d="M1929 2256 c-20 -7 -52 -22 -70 -34 -52 -32 -1774 -1762 -1794 -1802
-11 -21 -19 -63 -21 -105 l-3 -70 8 62 c10 82 51 148 115 188 44 27 58 30 131
30 73 0 87 -3 131 -30 68 -43 107 -108 112 -191 2 -35 -1 -78 -7 -96 -9 -26
39 17 214 192 124 124 225 226 225 227 0 1 -14 -3 -30 -9 -17 -5 -59 -8 -94
-6 -83 5 -148 44 -191 112 -27 44 -30 58 -30 131 0 73 3 87 30 131 19 30 49
60 79 79 44 27 58 30 131 30 73 0 87 -3 131 -30 68 -43 107 -108 112 -191 2
-35 -1 -77 -6 -94 -6 -16 -10 -30 -9 -30 1 0 103 101 227 225 175 175 218 223
192 214 -18 -6 -61 -9 -96 -7 -83 5 -148 44 -191 112 -27 44 -30 58 -30 131 0
73 3 87 30 131 19 30 49 60 79 79 44 27 58 30 131 30 73 0 87 -3 131 -30 68
-43 107 -108 112 -191 2 -35 -1 -78 -7 -96 -9 -26 39 17 214 192 124 124 225
226 225 227 0 1 -14 -3 -30 -9 -17 -5 -59 -8 -94 -6 -83 5 -148 44 -191 112
-27 44 -30 58 -30 131 0 73 3 87 30 131 45 72 109 108 199 112 63 3 78 0 126
-25 38 -20 65 -43 88 -77 36 -55 41 -53 12 3 -51 100 -186 155 -291 117z"/>
</g>
</svg>
